<?xml version="1.0" encoding="UTF-8" standalone="no"?>
<svg
   xmlns:dc="http://purl.org/dc/elements/1.1/"
   xmlns:cc="http://creativecommons.org/ns#"
   xmlns:rdf="http://www.w3.org/1999/02/22-rdf-syntax-ns#"
   xmlns:svg="http://www.w3.org/2000/svg"
   xmlns="http://www.w3.org/2000/svg"
   xmlns:sodipodi="http://sodipodi.sourceforge.net/DTD/sodipodi-0.dtd"
   xmlns:inkscape="http://www.inkscape.org/namespaces/inkscape"
   width="118.43047mm"
   height="107.55433mm"
   viewBox="0 0 118.43047 107.55433"
   version="1.1"
   id="svg8"
   inkscape:version="1.0.1 (3bc2e813f5, 2020-09-07, custom)"
   sodipodi:docname="logo.svg">
  <defs
     id="defs2" />
  <sodipodi:namedview
     id="base"
     pagecolor="#ffffff"
     bordercolor="#666666"
     borderopacity="1.0"
     inkscape:pageopacity="0.0"
     inkscape:pageshadow="2"
     inkscape:zoom="1.4"
     inkscape:cx="151.47869"
     inkscape:cy="143.82673"
     inkscape:document-units="mm"
     inkscape:current-layer="layer1"
     inkscape:document-rotation="0"
     showgrid="false"
     fit-margin-top="0"
     fit-margin-left="0"
     fit-margin-right="0"
     fit-margin-bottom="0"
     inkscape:window-width="1506"
     inkscape:window-height="1034"
     inkscape:window-x="2887"
     inkscape:window-y="177"
     inkscape:window-maximized="0" />
  <metadata
     id="metadata5">
    <rdf:RDF>
      <cc:Work
         rdf:about="">
        <dc:format>image/svg+xml</dc:format>
        <dc:type
           rdf:resource="http://purl.org/dc/dcmitype/StillImage" />
        <dc:title />
      </cc:Work>
    </rdf:RDF>
  </metadata>
  <g
     inkscape:label="Layer 1"
     inkscape:groupmode="layer"
     id="layer1"
     transform="translate(-35.1518,-81.854156)">
    <rect
       style="fill:#ffffff;stroke-width:0.264583"
       id="rect833"
       width="36.356674"
       height="21.321777"
       x="76.149109"
       y="106.3585" />
    <path
       style="fill:#6495ed;fill-opacity:1;stroke:none;stroke-width:0.264583"
       d="m 79.672285,151.98508 h 0.264583 c -1.565275,9.55357 -11.654102,21.92099 -22.489583,17.93901 -3.969544,-1.45891 -3.988858,-5.30992 -7.149835,-7.28239 -3.031252,-1.89124 -7.350654,-0.18891 -8.059923,3.36629 -1.852744,9.28741 10.575581,15.39902 18.120175,15.60063 12.180093,0.32544 24.46576,-8.83285 28.31041,-20.36313 h 0.26459 v 15.61042 c 0,2.64345 -0.36539,5.59699 0.10874,8.20208 0.47651,2.61964 3.07261,4.53734 5.71209,4.33599 2.74426,-0.20955 4.72652,-2.47676 4.97549,-5.12974 0.707228,-7.53904 0.0516,-15.44452 0.0516,-23.01875 h 0.264588 c 3.93461,11.69855 16.26393,20.69227 28.575,20.36313 7.49802,-0.20056 20.02075,-6.64131 17.82947,-15.86495 -0.81333,-3.42318 -5.1353,-4.9104 -8.03381,-3.10197 -3.157,1.96982 -3.19907,5.83036 -7.14983,7.28239 -10.80003,3.96901 -20.9296,-8.41798 -22.48958,-17.93901 8.14466,9.71708 21.32118,13.82977 32.80833,6.97388 5.99943,-3.5806 10.24678,-9.64221 11.56176,-16.49888 0.44741,-2.33336 0.88159,-5.56948 -0.50324,-7.66022 -2.16164,-3.2639 -7.29429,-3.1242 -9.27153,0.26273 -1.49119,2.55455 -0.84613,5.97853 -2.27912,8.7204 -3.86556,7.39617 -13.40564,10.00284 -20.14537,4.81172 -4.93051,-3.79783 -5.55625,-8.82809 -5.55625,-14.6013 V 110.4455 c 0,-4.91252 0.43762,-10.11 -1.26206,-14.816669 -4.37754,-12.12056 -19.399258,-17.52711 -30.487945,-10.94205 -10.085652,5.98929 -10.31875,15.878639 -10.31875,26.287879 v 18.52083 c 0,7.23636 0.805921,14.52192 -5.820833,19.32517 -6.866732,4.97708 -16.308123,2.15212 -20.015782,-5.30225 -1.454124,-2.92365 -0.621427,-7.0276 -2.874433,-9.45436 -3.0861,-3.32396 -8.845788,-1.34434 -9.33106,3.10436 -2.515897,23.06373 32.64355,35.09486 44.392108,14.81667 m 4.497917,-42.74741 c 8.20578,-1.2782 10.69578,11.54298 2.38125,12.75953 -8.430949,1.23375 -10.807171,-11.44719 -2.38125,-12.75953 m 17.727078,0.0183 c 8.001,-1.45891 10.70901,11.14557 2.64583,12.69788 -8.420628,1.6211 -11.076778,-11.16065 -2.64583,-12.69788 m -17.197908,2.51248 c 1.63618,2.72706 -0.0603,5.9735 -2.910421,3.175 -1.669521,6.41244 10.073211,5.00671 6.820161,-1.02288 -0.31353,-0.58129 -0.76491,-1.06812 -1.32186,-1.42346 -0.79428,-0.50694 -1.67111,-0.64267 -2.58788,-0.72866 m 17.727078,0 c 1.64226,2.73685 -0.009,5.9055 -2.910418,3.175 -1.75895,6.43308 10.084858,5.03105 6.890008,-1.03717 -0.31803,-0.60457 -0.79269,-1.11336 -1.37027,-1.47743 -0.80354,-0.50641 -1.68619,-0.60404 -2.60932,-0.6604 z"
       id="path849" />
  </g>
</svg>
